<svg width="900" height="280" viewBox="0 0 900 280" xmlns="http://www.w3.org/2000/svg">
  <style>.label{fill:#e5e5e5;font:14px Inter,Arial}.wave{fill:none;stroke:#ffffff;stroke-width:2}.grid{stroke:#202020;stroke-width:1}</style>
  <rect width="100%" height="100%" fill="#0b0b0b"/>
  <g transform="translate(60,30)">
    <g class="grid"><path d="M0 220 H780"/><path d="M0 0 V220"/><path d="M195 0 V220"/><path d="M390 0 V220"/><path d="M585 0 V220"/></g>
    <text x="0" y="-6" class="label">Alpha</text><text x="195" y="-6" class="label">Theta</text><text x="390" y="-6" class="label">Beta</text><text x="585" y="-6" class="label">Gamma</text>
    <g>
      <path class="wave" d="M0 110 C30 90,60 130,90 110 S150 130,195 110 S255 130,300 110 S360 130,390 110"/>
      <path class="wave" d="M195 110 C210 70,240 150,270 110 S330 150,360 110 S420 150,450 110"/>
      <path class="wave" d="M390 110 C400 95,420 125,435 110 S465 125,480 110 S510 125,525 110 S555 125,570 110"/>
      <path class="wave" d="M585 110 C590 105,600 115,605 110 S615 115,620 110 S630 115,635 110 S645 115,650 110 S660 115,665 110"/>
    </g>
  </g>
</svg>